<?xml version="1.0" encoding="UTF-8"?><svg xmlns="http://www.w3.org/2000/svg" xmlns:xlink="http://www.w3.org/1999/xlink" contentStyleType="text/css" height="289px" preserveAspectRatio="none" style="width:1332px;height:289px;background:#FFFFFF;" version="1.1" viewBox="0 0 1332 289" width="1332px" zoomAndPan="magnify">
    <defs/>
    <g>
        <!--cluster Controlador-->
        <g id="cluster_Controlador">
            <path d="M8.5,50 L93.5,50 A3.75,3.75 0 0 1 96,52.5 L103,73.6094 L510.5,73.6094 A2.5,2.5 0 0 1 513,76.1094 L513,255.5 A2.5,2.5 0 0 1 510.5,258 L8.5,258 A2.5,2.5 0 0 1 6,255.5 L6,52.5 A2.5,2.5 0 0 1 8.5,50 " fill="none" style="stroke:#000000;stroke-width:1.5;"/>
            <line style="stroke:#000000;stroke-width:1.5;" x1="6" x2="103" y1="73.6094" y2="73.6094"/>
            <text fill="#000000" font-family="sans-serif" font-size="14" font-weight="bold" lengthAdjust="spacing" textLength="84" x="10" y="66.5332">Controlador</text>
        </g>
        <!--cluster Main-->
        <g id="cluster_Main">
            <path d="M901.5,50 L936.5,50 A3.75,3.75 0 0 1 939,52.5 L946,73.6094 L986.5,73.6094 A2.5,2.5 0 0 1 989,76.1094 L989,147.5 A2.5,2.5 0 0 1 986.5,150 L901.5,150 A2.5,2.5 0 0 1 899,147.5 L899,52.5 A2.5,2.5 0 0 1 901.5,50 " fill="none" style="stroke:#000000;stroke-width:1.5;"/>
            <line style="stroke:#000000;stroke-width:1.5;" x1="899" x2="946" y1="73.6094" y2="73.6094"/>
            <text fill="#000000" font-family="sans-serif" font-size="14" font-weight="bold" lengthAdjust="spacing" textLength="34" x="903" y="66.5332">Main</text>
        </g>
        <!--cluster java-->
        <g id="cluster_java">
            <path d="M1015.5,6 L1045.5,6 A3.75,3.75 0 0 1 1048,8.5 L1055,29.6094 L1198.5,29.6094 A2.5,2.5 0 0 1 1201,32.1094 L1201,171.5 A2.5,2.5 0 0 1 1198.5,174 L1015.5,174 A2.5,2.5 0 0 1 1013,171.5 L1013,8.5 A2.5,2.5 0 0 1 1015.5,6 " fill="none" style="stroke:#000000;stroke-width:1.5;"/>
            <line style="stroke:#000000;stroke-width:1.5;" x1="1013" x2="1055" y1="29.6094" y2="29.6094"/>
            <text fill="#000000" font-family="sans-serif" font-size="14" font-weight="bold" lengthAdjust="spacing" textLength="29" x="1017" y="22.5332">java</text>
        </g>
        <!--cluster io-->
        <g id="cluster_io">
            <path d="M1039.5,50 L1053.5,50 A3.75,3.75 0 0 1 1056,52.5 L1063,73.6094 L1174.5,73.6094 A2.5,2.5 0 0 1 1177,76.1094 L1177,147.5 A2.5,2.5 0 0 1 1174.5,150 L1039.5,150 A2.5,2.5 0 0 1 1037,147.5 L1037,52.5 A2.5,2.5 0 0 1 1039.5,50 " fill="none" style="stroke:#000000;stroke-width:1.5;"/>
            <line style="stroke:#000000;stroke-width:1.5;" x1="1037" x2="1063" y1="73.6094" y2="73.6094"/>
            <text fill="#000000" font-family="sans-serif" font-size="14" font-weight="bold" lengthAdjust="spacing" textLength="13" x="1041" y="66.5332">io</text>
        </g>
        <!--cluster javax-->
        <g id="cluster_javax">
            <path d="M539.5,6 L577.5,6 A3.75,3.75 0 0 1 580,8.5 L587,29.6094 L872.5,29.6094 A2.5,2.5 0 0 1 875,32.1094 L875,279.5 A2.5,2.5 0 0 1 872.5,282 L539.5,282 A2.5,2.5 0 0 1 537,279.5 L537,8.5 A2.5,2.5 0 0 1 539.5,6 " fill="none" style="stroke:#000000;stroke-width:1.5;"/>
            <line style="stroke:#000000;stroke-width:1.5;" x1="537" x2="587" y1="29.6094" y2="29.6094"/>
            <text fill="#000000" font-family="sans-serif" font-size="14" font-weight="bold" lengthAdjust="spacing" textLength="37" x="541" y="22.5332">javax</text>
        </g>
        <!--cluster swing-->
        <g id="cluster_swing">
            <path d="M563.5,50 L605.5,50 A3.75,3.75 0 0 1 608,52.5 L615,73.6094 L848.5,73.6094 A2.5,2.5 0 0 1 851,76.1094 L851,255.5 A2.5,2.5 0 0 1 848.5,258 L563.5,258 A2.5,2.5 0 0 1 561,255.5 L561,52.5 A2.5,2.5 0 0 1 563.5,50 " fill="none" style="stroke:#000000;stroke-width:1.5;"/>
            <line style="stroke:#000000;stroke-width:1.5;" x1="561" x2="615" y1="73.6094" y2="73.6094"/>
            <text fill="#000000" font-family="sans-serif" font-size="14" font-weight="bold" lengthAdjust="spacing" textLength="41" x="565" y="66.5332">swing</text>
        </g>
        <!--cluster vista-->
        <g id="cluster_vista">
            <path d="M1227.5,50 L1262.5,50 A3.75,3.75 0 0 1 1265,52.5 L1272,73.6094 L1322.5,73.6094 A2.5,2.5 0 0 1 1325,76.1094 L1325,147.5 A2.5,2.5 0 0 1 1322.5,150 L1227.5,150 A2.5,2.5 0 0 1 1225,147.5 L1225,52.5 A2.5,2.5 0 0 1 1227.5,50 " fill="none" style="stroke:#000000;stroke-width:1.5;"/>
            <line style="stroke:#000000;stroke-width:1.5;" x1="1225" x2="1272" y1="73.6094" y2="73.6094"/>
            <text fill="#000000" font-family="sans-serif" font-size="14" font-weight="bold" lengthAdjust="spacing" textLength="34" x="1229" y="66.5332">vista</text>
        </g>
        <!--class ClientController-->
        <g id="elem_ClientController">
            <rect codeLine="1" fill="#F1F1F1" height="48" id="ClientController" rx="2.5" ry="2.5" style="stroke:#181818;stroke-width:0.5;" width="130" x="22" y="86"/>
            <ellipse cx="37" cy="102" fill="#ADD1B2" rx="11" ry="11" style="stroke:#181818;stroke-width:1.0;"/>
            <path d="M39.7656,97.875 Q39.9219,97.6563 40.1094,97.5469 Q40.2969,97.4375 40.5156,97.4375 Q40.8906,97.4375 41.125,97.7031 Q41.3594,97.9531 41.3594,98.5625 L41.3594,100.0156 Q41.3594,100.625 41.125,100.8906 Q40.8906,101.1563 40.5156,101.1563 Q40.1719,101.1563 39.9688,100.9531 Q39.7656,100.7656 39.6563,100.25 Q39.6094,99.8906 39.4219,99.7031 Q39.0938,99.3281 38.4844,99.1094 Q37.875,98.8906 37.25,98.8906 Q36.4844,98.8906 35.8438,99.2188 Q35.2188,99.5469 34.7188,100.2969 Q34.2344,101.0469 34.2344,102.0781 L34.2344,103.1719 Q34.2344,104.4063 35.125,105.2344 Q36.0156,106.0469 37.6094,106.0469 Q38.5469,106.0469 39.2031,105.7969 Q39.5938,105.6406 40.0156,105.2031 Q40.2813,104.9375 40.4219,104.8594 Q40.5781,104.7813 40.7813,104.7813 Q41.1094,104.7813 41.3594,105.0469 Q41.625,105.2969 41.625,105.6406 Q41.625,105.9844 41.2813,106.3906 Q40.7813,106.9688 39.9844,107.2969 Q38.9063,107.75 37.6094,107.75 Q36.0938,107.75 34.8906,107.125 Q33.9063,106.625 33.2188,105.5625 Q32.5313,104.4844 32.5313,103.2031 L32.5313,102.0469 Q32.5313,100.7188 33.1406,99.5781 Q33.7656,98.4219 34.8594,97.8125 Q35.9531,97.1875 37.1875,97.1875 Q37.9219,97.1875 38.5625,97.3594 Q39.2188,97.5156 39.7656,97.875 Z " fill="#000000"/>
            <text fill="#000000" font-family="sans-serif" font-size="14" lengthAdjust="spacing" textLength="98" x="51" y="107.7285">ClientController</text>
            <line style="stroke:#181818;stroke-width:0.5;" x1="23" x2="151" y1="118" y2="118"/>
            <line style="stroke:#181818;stroke-width:0.5;" x1="23" x2="151" y1="126" y2="126"/>
        </g>
        <!--class OrderController-->
        <g id="elem_OrderController">
            <rect codeLine="2" fill="#F1F1F1" height="48" id="OrderController" rx="2.5" ry="2.5" style="stroke:#181818;stroke-width:0.5;" width="131" x="187.5" y="86"/>
            <ellipse cx="202.5" cy="102" fill="#ADD1B2" rx="11" ry="11" style="stroke:#181818;stroke-width:1.0;"/>
            <path d="M205.2656,97.875 Q205.4219,97.6563 205.6094,97.5469 Q205.7969,97.4375 206.0156,97.4375 Q206.3906,97.4375 206.625,97.7031 Q206.8594,97.9531 206.8594,98.5625 L206.8594,100.0156 Q206.8594,100.625 206.625,100.8906 Q206.3906,101.1563 206.0156,101.1563 Q205.6719,101.1563 205.4688,100.9531 Q205.2656,100.7656 205.1563,100.25 Q205.1094,99.8906 204.9219,99.7031 Q204.5938,99.3281 203.9844,99.1094 Q203.375,98.8906 202.75,98.8906 Q201.9844,98.8906 201.3438,99.2188 Q200.7188,99.5469 200.2188,100.2969 Q199.7344,101.0469 199.7344,102.0781 L199.7344,103.1719 Q199.7344,104.4063 200.625,105.2344 Q201.5156,106.0469 203.1094,106.0469 Q204.0469,106.0469 204.7031,105.7969 Q205.0938,105.6406 205.5156,105.2031 Q205.7813,104.9375 205.9219,104.8594 Q206.0781,104.7813 206.2813,104.7813 Q206.6094,104.7813 206.8594,105.0469 Q207.125,105.2969 207.125,105.6406 Q207.125,105.9844 206.7813,106.3906 Q206.2813,106.9688 205.4844,107.2969 Q204.4063,107.75 203.1094,107.75 Q201.5938,107.75 200.3906,107.125 Q199.4063,106.625 198.7188,105.5625 Q198.0313,104.4844 198.0313,103.2031 L198.0313,102.0469 Q198.0313,100.7188 198.6406,99.5781 Q199.2656,98.4219 200.3594,97.8125 Q201.4531,97.1875 202.6875,97.1875 Q203.4219,97.1875 204.0625,97.3594 Q204.7188,97.5156 205.2656,97.875 Z " fill="#000000"/>
            <text fill="#000000" font-family="sans-serif" font-size="14" lengthAdjust="spacing" textLength="99" x="216.5" y="107.7285">OrderController</text>
            <line style="stroke:#181818;stroke-width:0.5;" x1="188.5" x2="317.5" y1="118" y2="118"/>
            <line style="stroke:#181818;stroke-width:0.5;" x1="188.5" x2="317.5" y1="126" y2="126"/>
        </g>
        <!--class ProductController-->
        <g id="elem_ProductController">
            <rect codeLine="3" fill="#F1F1F1" height="48" id="ProductController" rx="2.5" ry="2.5" style="stroke:#181818;stroke-width:0.5;" width="143" x="353.5" y="86"/>
            <ellipse cx="368.5" cy="102" fill="#ADD1B2" rx="11" ry="11" style="stroke:#181818;stroke-width:1.0;"/>
            <path d="M371.2656,97.875 Q371.4219,97.6563 371.6094,97.5469 Q371.7969,97.4375 372.0156,97.4375 Q372.3906,97.4375 372.625,97.7031 Q372.8594,97.9531 372.8594,98.5625 L372.8594,100.0156 Q372.8594,100.625 372.625,100.8906 Q372.3906,101.1563 372.0156,101.1563 Q371.6719,101.1563 371.4688,100.9531 Q371.2656,100.7656 371.1563,100.25 Q371.1094,99.8906 370.9219,99.7031 Q370.5938,99.3281 369.9844,99.1094 Q369.375,98.8906 368.75,98.8906 Q367.9844,98.8906 367.3438,99.2188 Q366.7188,99.5469 366.2188,100.2969 Q365.7344,101.0469 365.7344,102.0781 L365.7344,103.1719 Q365.7344,104.4063 366.625,105.2344 Q367.5156,106.0469 369.1094,106.0469 Q370.0469,106.0469 370.7031,105.7969 Q371.0938,105.6406 371.5156,105.2031 Q371.7813,104.9375 371.9219,104.8594 Q372.0781,104.7813 372.2813,104.7813 Q372.6094,104.7813 372.8594,105.0469 Q373.125,105.2969 373.125,105.6406 Q373.125,105.9844 372.7813,106.3906 Q372.2813,106.9688 371.4844,107.2969 Q370.4063,107.75 369.1094,107.75 Q367.5938,107.75 366.3906,107.125 Q365.4063,106.625 364.7188,105.5625 Q364.0313,104.4844 364.0313,103.2031 L364.0313,102.0469 Q364.0313,100.7188 364.6406,99.5781 Q365.2656,98.4219 366.3594,97.8125 Q367.4531,97.1875 368.6875,97.1875 Q369.4219,97.1875 370.0625,97.3594 Q370.7188,97.5156 371.2656,97.875 Z " fill="#000000"/>
            <text fill="#000000" font-family="sans-serif" font-size="14" lengthAdjust="spacing" textLength="111" x="382.5" y="107.7285">ProductController</text>
            <line style="stroke:#181818;stroke-width:0.5;" x1="354.5" x2="495.5" y1="118" y2="118"/>
            <line style="stroke:#181818;stroke-width:0.5;" x1="354.5" x2="495.5" y1="126" y2="126"/>
        </g>
        <!--class SaleController-->
        <g id="elem_SaleController">
            <rect codeLine="4" fill="#F1F1F1" height="48" id="SaleController" rx="2.5" ry="2.5" style="stroke:#181818;stroke-width:0.5;" width="122" x="26" y="194"/>
            <ellipse cx="41" cy="210" fill="#ADD1B2" rx="11" ry="11" style="stroke:#181818;stroke-width:1.0;"/>
            <path d="M43.7656,205.875 Q43.9219,205.6563 44.1094,205.5469 Q44.2969,205.4375 44.5156,205.4375 Q44.8906,205.4375 45.125,205.7031 Q45.3594,205.9531 45.3594,206.5625 L45.3594,208.0156 Q45.3594,208.625 45.125,208.8906 Q44.8906,209.1563 44.5156,209.1563 Q44.1719,209.1563 43.9688,208.9531 Q43.7656,208.7656 43.6563,208.25 Q43.6094,207.8906 43.4219,207.7031 Q43.0938,207.3281 42.4844,207.1094 Q41.875,206.8906 41.25,206.8906 Q40.4844,206.8906 39.8438,207.2188 Q39.2188,207.5469 38.7188,208.2969 Q38.2344,209.0469 38.2344,210.0781 L38.2344,211.1719 Q38.2344,212.4063 39.125,213.2344 Q40.0156,214.0469 41.6094,214.0469 Q42.5469,214.0469 43.2031,213.7969 Q43.5938,213.6406 44.0156,213.2031 Q44.2813,212.9375 44.4219,212.8594 Q44.5781,212.7813 44.7813,212.7813 Q45.1094,212.7813 45.3594,213.0469 Q45.625,213.2969 45.625,213.6406 Q45.625,213.9844 45.2813,214.3906 Q44.7813,214.9688 43.9844,215.2969 Q42.9063,215.75 41.6094,215.75 Q40.0938,215.75 38.8906,215.125 Q37.9063,214.625 37.2188,213.5625 Q36.5313,212.4844 36.5313,211.2031 L36.5313,210.0469 Q36.5313,208.7188 37.1406,207.5781 Q37.7656,206.4219 38.8594,205.8125 Q39.9531,205.1875 41.1875,205.1875 Q41.9219,205.1875 42.5625,205.3594 Q43.2188,205.5156 43.7656,205.875 Z " fill="#000000"/>
            <text fill="#000000" font-family="sans-serif" font-size="14" lengthAdjust="spacing" textLength="90" x="55" y="215.7285">SaleController</text>
            <line style="stroke:#181818;stroke-width:0.5;" x1="27" x2="147" y1="226" y2="226"/>
            <line style="stroke:#181818;stroke-width:0.5;" x1="27" x2="147" y1="234" y2="234"/>
        </g>
        <!--class TableController-->
        <g id="elem_TableController">
            <rect codeLine="5" fill="#F1F1F1" height="48" id="TableController" rx="2.5" ry="2.5" style="stroke:#181818;stroke-width:0.5;" width="130" x="183" y="194"/>
            <ellipse cx="198" cy="210" fill="#ADD1B2" rx="11" ry="11" style="stroke:#181818;stroke-width:1.0;"/>
            <path d="M200.7656,205.875 Q200.9219,205.6563 201.1094,205.5469 Q201.2969,205.4375 201.5156,205.4375 Q201.8906,205.4375 202.125,205.7031 Q202.3594,205.9531 202.3594,206.5625 L202.3594,208.0156 Q202.3594,208.625 202.125,208.8906 Q201.8906,209.1563 201.5156,209.1563 Q201.1719,209.1563 200.9688,208.9531 Q200.7656,208.7656 200.6563,208.25 Q200.6094,207.8906 200.4219,207.7031 Q200.0938,207.3281 199.4844,207.1094 Q198.875,206.8906 198.25,206.8906 Q197.4844,206.8906 196.8438,207.2188 Q196.2188,207.5469 195.7188,208.2969 Q195.2344,209.0469 195.2344,210.0781 L195.2344,211.1719 Q195.2344,212.4063 196.125,213.2344 Q197.0156,214.0469 198.6094,214.0469 Q199.5469,214.0469 200.2031,213.7969 Q200.5938,213.6406 201.0156,213.2031 Q201.2813,212.9375 201.4219,212.8594 Q201.5781,212.7813 201.7813,212.7813 Q202.1094,212.7813 202.3594,213.0469 Q202.625,213.2969 202.625,213.6406 Q202.625,213.9844 202.2813,214.3906 Q201.7813,214.9688 200.9844,215.2969 Q199.9063,215.75 198.6094,215.75 Q197.0938,215.75 195.8906,215.125 Q194.9063,214.625 194.2188,213.5625 Q193.5313,212.4844 193.5313,211.2031 L193.5313,210.0469 Q193.5313,208.7188 194.1406,207.5781 Q194.7656,206.4219 195.8594,205.8125 Q196.9531,205.1875 198.1875,205.1875 Q198.9219,205.1875 199.5625,205.3594 Q200.2188,205.5156 200.7656,205.875 Z " fill="#000000"/>
            <text fill="#000000" font-family="sans-serif" font-size="14" lengthAdjust="spacing" textLength="98" x="212" y="215.7285">TableController</text>
            <line style="stroke:#181818;stroke-width:0.5;" x1="184" x2="312" y1="226" y2="226"/>
            <line style="stroke:#181818;stroke-width:0.5;" x1="184" x2="312" y1="234" y2="234"/>
        </g>
        <!--class App-->
        <g id="elem_App">
            <rect codeLine="6" fill="#F1F1F1" height="48" id="App" rx="2.5" ry="2.5" style="stroke:#181818;stroke-width:0.5;" width="57" x="915.5" y="86"/>
            <ellipse cx="930.5" cy="102" fill="#ADD1B2" rx="11" ry="11" style="stroke:#181818;stroke-width:1.0;"/>
            <path d="M933.2656,97.875 Q933.4219,97.6563 933.6094,97.5469 Q933.7969,97.4375 934.0156,97.4375 Q934.3906,97.4375 934.625,97.7031 Q934.8594,97.9531 934.8594,98.5625 L934.8594,100.0156 Q934.8594,100.625 934.625,100.8906 Q934.3906,101.1563 934.0156,101.1563 Q933.6719,101.1563 933.4688,100.9531 Q933.2656,100.7656 933.1563,100.25 Q933.1094,99.8906 932.9219,99.7031 Q932.5938,99.3281 931.9844,99.1094 Q931.375,98.8906 930.75,98.8906 Q929.9844,98.8906 929.3438,99.2188 Q928.7188,99.5469 928.2188,100.2969 Q927.7344,101.0469 927.7344,102.0781 L927.7344,103.1719 Q927.7344,104.4063 928.625,105.2344 Q929.5156,106.0469 931.1094,106.0469 Q932.0469,106.0469 932.7031,105.7969 Q933.0938,105.6406 933.5156,105.2031 Q933.7813,104.9375 933.9219,104.8594 Q934.0781,104.7813 934.2813,104.7813 Q934.6094,104.7813 934.8594,105.0469 Q935.125,105.2969 935.125,105.6406 Q935.125,105.9844 934.7813,106.3906 Q934.2813,106.9688 933.4844,107.2969 Q932.4063,107.75 931.1094,107.75 Q929.5938,107.75 928.3906,107.125 Q927.4063,106.625 926.7188,105.5625 Q926.0313,104.4844 926.0313,103.2031 L926.0313,102.0469 Q926.0313,100.7188 926.6406,99.5781 Q927.2656,98.4219 928.3594,97.8125 Q929.4531,97.1875 930.6875,97.1875 Q931.4219,97.1875 932.0625,97.3594 Q932.7188,97.5156 933.2656,97.875 Z " fill="#000000"/>
            <text fill="#000000" font-family="sans-serif" font-size="14" lengthAdjust="spacing" textLength="25" x="944.5" y="107.7285">App</text>
            <line style="stroke:#181818;stroke-width:0.5;" x1="916.5" x2="971.5" y1="118" y2="118"/>
            <line style="stroke:#181818;stroke-width:0.5;" x1="916.5" x2="971.5" y1="126" y2="126"/>
        </g>
        <!--class IOException-->
        <g id="elem_IOException">
            <rect codeLine="7" fill="#F1F1F1" height="48" id="IOException" rx="2.5" ry="2.5" style="stroke:#181818;stroke-width:0.5;" width="107" x="1053.5" y="86"/>
            <ellipse cx="1068.5" cy="102" fill="#ADD1B2" rx="11" ry="11" style="stroke:#181818;stroke-width:1.0;"/>
            <path d="M1071.2656,97.875 Q1071.4219,97.6563 1071.6094,97.5469 Q1071.7969,97.4375 1072.0156,97.4375 Q1072.3906,97.4375 1072.625,97.7031 Q1072.8594,97.9531 1072.8594,98.5625 L1072.8594,100.0156 Q1072.8594,100.625 1072.625,100.8906 Q1072.3906,101.1563 1072.0156,101.1563 Q1071.6719,101.1563 1071.4688,100.9531 Q1071.2656,100.7656 1071.1563,100.25 Q1071.1094,99.8906 1070.9219,99.7031 Q1070.5938,99.3281 1069.9844,99.1094 Q1069.375,98.8906 1068.75,98.8906 Q1067.9844,98.8906 1067.3438,99.2188 Q1066.7188,99.5469 1066.2188,100.2969 Q1065.7344,101.0469 1065.7344,102.0781 L1065.7344,103.1719 Q1065.7344,104.4063 1066.625,105.2344 Q1067.5156,106.0469 1069.1094,106.0469 Q1070.0469,106.0469 1070.7031,105.7969 Q1071.0938,105.6406 1071.5156,105.2031 Q1071.7813,104.9375 1071.9219,104.8594 Q1072.0781,104.7813 1072.2813,104.7813 Q1072.6094,104.7813 1072.8594,105.0469 Q1073.125,105.2969 1073.125,105.6406 Q1073.125,105.9844 1072.7813,106.3906 Q1072.2813,106.9688 1071.4844,107.2969 Q1070.4063,107.75 1069.1094,107.75 Q1067.5938,107.75 1066.3906,107.125 Q1065.4063,106.625 1064.7188,105.5625 Q1064.0313,104.4844 1064.0313,103.2031 L1064.0313,102.0469 Q1064.0313,100.7188 1064.6406,99.5781 Q1065.2656,98.4219 1066.3594,97.8125 Q1067.4531,97.1875 1068.6875,97.1875 Q1069.4219,97.1875 1070.0625,97.3594 Q1070.7188,97.5156 1071.2656,97.875 Z " fill="#000000"/>
            <text fill="#000000" font-family="sans-serif" font-size="14" lengthAdjust="spacing" textLength="75" x="1082.5" y="107.7285">IOException</text>
            <line style="stroke:#181818;stroke-width:0.5;" x1="1054.5" x2="1159.5" y1="118" y2="118"/>
            <line style="stroke:#181818;stroke-width:0.5;" x1="1054.5" x2="1159.5" y1="126" y2="126"/>
        </g>
        <!--class SwingUtilities-->
        <g id="elem_SwingUtilities">
            <rect codeLine="8" fill="#F1F1F1" height="48" id="SwingUtilities" rx="2.5" ry="2.5" style="stroke:#181818;stroke-width:0.5;" width="113" x="586.5" y="86"/>
            <ellipse cx="601.5" cy="102" fill="#ADD1B2" rx="11" ry="11" style="stroke:#181818;stroke-width:1.0;"/>
            <path d="M604.2656,97.875 Q604.4219,97.6563 604.6094,97.5469 Q604.7969,97.4375 605.0156,97.4375 Q605.3906,97.4375 605.625,97.7031 Q605.8594,97.9531 605.8594,98.5625 L605.8594,100.0156 Q605.8594,100.625 605.625,100.8906 Q605.3906,101.1563 605.0156,101.1563 Q604.6719,101.1563 604.4688,100.9531 Q604.2656,100.7656 604.1563,100.25 Q604.1094,99.8906 603.9219,99.7031 Q603.5938,99.3281 602.9844,99.1094 Q602.375,98.8906 601.75,98.8906 Q600.9844,98.8906 600.3438,99.2188 Q599.7188,99.5469 599.2188,100.2969 Q598.7344,101.0469 598.7344,102.0781 L598.7344,103.1719 Q598.7344,104.4063 599.625,105.2344 Q600.5156,106.0469 602.1094,106.0469 Q603.0469,106.0469 603.7031,105.7969 Q604.0938,105.6406 604.5156,105.2031 Q604.7813,104.9375 604.9219,104.8594 Q605.0781,104.7813 605.2813,104.7813 Q605.6094,104.7813 605.8594,105.0469 Q606.125,105.2969 606.125,105.6406 Q606.125,105.9844 605.7813,106.3906 Q605.2813,106.9688 604.4844,107.2969 Q603.4063,107.75 602.1094,107.75 Q600.5938,107.75 599.3906,107.125 Q598.4063,106.625 597.7188,105.5625 Q597.0313,104.4844 597.0313,103.2031 L597.0313,102.0469 Q597.0313,100.7188 597.6406,99.5781 Q598.2656,98.4219 599.3594,97.8125 Q600.4531,97.1875 601.6875,97.1875 Q602.4219,97.1875 603.0625,97.3594 Q603.7188,97.5156 604.2656,97.875 Z " fill="#000000"/>
            <text fill="#000000" font-family="sans-serif" font-size="14" lengthAdjust="spacing" textLength="81" x="615.5" y="107.7285">SwingUtilities</text>
            <line style="stroke:#181818;stroke-width:0.5;" x1="587.5" x2="698.5" y1="118" y2="118"/>
            <line style="stroke:#181818;stroke-width:0.5;" x1="587.5" x2="698.5" y1="126" y2="126"/>
        </g>
        <!--class UIManager-->
        <g id="elem_UIManager">
            <rect codeLine="9" fill="#F1F1F1" height="48" id="UIManager" rx="2.5" ry="2.5" style="stroke:#181818;stroke-width:0.5;" width="100" x="735" y="86"/>
            <ellipse cx="750" cy="102" fill="#ADD1B2" rx="11" ry="11" style="stroke:#181818;stroke-width:1.0;"/>
            <path d="M752.7656,97.875 Q752.9219,97.6563 753.1094,97.5469 Q753.2969,97.4375 753.5156,97.4375 Q753.8906,97.4375 754.125,97.7031 Q754.3594,97.9531 754.3594,98.5625 L754.3594,100.0156 Q754.3594,100.625 754.125,100.8906 Q753.8906,101.1563 753.5156,101.1563 Q753.1719,101.1563 752.9688,100.9531 Q752.7656,100.7656 752.6563,100.25 Q752.6094,99.8906 752.4219,99.7031 Q752.0938,99.3281 751.4844,99.1094 Q750.875,98.8906 750.25,98.8906 Q749.4844,98.8906 748.8438,99.2188 Q748.2188,99.5469 747.7188,100.2969 Q747.2344,101.0469 747.2344,102.0781 L747.2344,103.1719 Q747.2344,104.4063 748.125,105.2344 Q749.0156,106.0469 750.6094,106.0469 Q751.5469,106.0469 752.2031,105.7969 Q752.5938,105.6406 753.0156,105.2031 Q753.2813,104.9375 753.4219,104.8594 Q753.5781,104.7813 753.7813,104.7813 Q754.1094,104.7813 754.3594,105.0469 Q754.625,105.2969 754.625,105.6406 Q754.625,105.9844 754.2813,106.3906 Q753.7813,106.9688 752.9844,107.2969 Q751.9063,107.75 750.6094,107.75 Q749.0938,107.75 747.8906,107.125 Q746.9063,106.625 746.2188,105.5625 Q745.5313,104.4844 745.5313,103.2031 L745.5313,102.0469 Q745.5313,100.7188 746.1406,99.5781 Q746.7656,98.4219 747.8594,97.8125 Q748.9531,97.1875 750.1875,97.1875 Q750.9219,97.1875 751.5625,97.3594 Q752.2188,97.5156 752.7656,97.875 Z " fill="#000000"/>
            <text fill="#000000" font-family="sans-serif" font-size="14" lengthAdjust="spacing" textLength="68" x="764" y="107.7285">UIManager</text>
            <line style="stroke:#181818;stroke-width:0.5;" x1="736" x2="834" y1="118" y2="118"/>
            <line style="stroke:#181818;stroke-width:0.5;" x1="736" x2="834" y1="126" y2="126"/>
        </g>
        <!--class UnsupportedLookAndFeelException-->
        <g id="elem_UnsupportedLookAndFeelException">
            <rect codeLine="10" fill="#F1F1F1" height="48" id="UnsupportedLookAndFeelException" rx="2.5" ry="2.5" style="stroke:#181818;stroke-width:0.5;" width="258" x="577" y="194"/>
            <ellipse cx="592" cy="210" fill="#ADD1B2" rx="11" ry="11" style="stroke:#181818;stroke-width:1.0;"/>
            <path d="M594.7656,205.875 Q594.9219,205.6563 595.1094,205.5469 Q595.2969,205.4375 595.5156,205.4375 Q595.8906,205.4375 596.125,205.7031 Q596.3594,205.9531 596.3594,206.5625 L596.3594,208.0156 Q596.3594,208.625 596.125,208.8906 Q595.8906,209.1563 595.5156,209.1563 Q595.1719,209.1563 594.9688,208.9531 Q594.7656,208.7656 594.6563,208.25 Q594.6094,207.8906 594.4219,207.7031 Q594.0938,207.3281 593.4844,207.1094 Q592.875,206.8906 592.25,206.8906 Q591.4844,206.8906 590.8438,207.2188 Q590.2188,207.5469 589.7188,208.2969 Q589.2344,209.0469 589.2344,210.0781 L589.2344,211.1719 Q589.2344,212.4063 590.125,213.2344 Q591.0156,214.0469 592.6094,214.0469 Q593.5469,214.0469 594.2031,213.7969 Q594.5938,213.6406 595.0156,213.2031 Q595.2813,212.9375 595.4219,212.8594 Q595.5781,212.7813 595.7813,212.7813 Q596.1094,212.7813 596.3594,213.0469 Q596.625,213.2969 596.625,213.6406 Q596.625,213.9844 596.2813,214.3906 Q595.7813,214.9688 594.9844,215.2969 Q593.9063,215.75 592.6094,215.75 Q591.0938,215.75 589.8906,215.125 Q588.9063,214.625 588.2188,213.5625 Q587.5313,212.4844 587.5313,211.2031 L587.5313,210.0469 Q587.5313,208.7188 588.1406,207.5781 Q588.7656,206.4219 589.8594,205.8125 Q590.9531,205.1875 592.1875,205.1875 Q592.9219,205.1875 593.5625,205.3594 Q594.2188,205.5156 594.7656,205.875 Z " fill="#000000"/>
            <text fill="#000000" font-family="sans-serif" font-size="14" lengthAdjust="spacing" textLength="226" x="606" y="215.7285">UnsupportedLookAndFeelException</text>
            <line style="stroke:#181818;stroke-width:0.5;" x1="578" x2="834" y1="226" y2="226"/>
            <line style="stroke:#181818;stroke-width:0.5;" x1="578" x2="834" y1="234" y2="234"/>
        </g>
        <!--class Menu-->
        <g id="elem_Menu">
            <rect codeLine="11" fill="#F1F1F1" height="48" id="Menu" rx="2.5" ry="2.5" style="stroke:#181818;stroke-width:0.5;" width="67" x="1241.5" y="86"/>
            <ellipse cx="1256.5" cy="102" fill="#ADD1B2" rx="11" ry="11" style="stroke:#181818;stroke-width:1.0;"/>
            <path d="M1259.2656,97.875 Q1259.4219,97.6563 1259.6094,97.5469 Q1259.7969,97.4375 1260.0156,97.4375 Q1260.3906,97.4375 1260.625,97.7031 Q1260.8594,97.9531 1260.8594,98.5625 L1260.8594,100.0156 Q1260.8594,100.625 1260.625,100.8906 Q1260.3906,101.1563 1260.0156,101.1563 Q1259.6719,101.1563 1259.4688,100.9531 Q1259.2656,100.7656 1259.1563,100.25 Q1259.1094,99.8906 1258.9219,99.7031 Q1258.5938,99.3281 1257.9844,99.1094 Q1257.375,98.8906 1256.75,98.8906 Q1255.9844,98.8906 1255.3438,99.2188 Q1254.7188,99.5469 1254.2188,100.2969 Q1253.7344,101.0469 1253.7344,102.0781 L1253.7344,103.1719 Q1253.7344,104.4063 1254.625,105.2344 Q1255.5156,106.0469 1257.1094,106.0469 Q1258.0469,106.0469 1258.7031,105.7969 Q1259.0938,105.6406 1259.5156,105.2031 Q1259.7813,104.9375 1259.9219,104.8594 Q1260.0781,104.7813 1260.2813,104.7813 Q1260.6094,104.7813 1260.8594,105.0469 Q1261.125,105.2969 1261.125,105.6406 Q1261.125,105.9844 1260.7813,106.3906 Q1260.2813,106.9688 1259.4844,107.2969 Q1258.4063,107.75 1257.1094,107.75 Q1255.5938,107.75 1254.3906,107.125 Q1253.4063,106.625 1252.7188,105.5625 Q1252.0313,104.4844 1252.0313,103.2031 L1252.0313,102.0469 Q1252.0313,100.7188 1252.6406,99.5781 Q1253.2656,98.4219 1254.3594,97.8125 Q1255.4531,97.1875 1256.6875,97.1875 Q1257.4219,97.1875 1258.0625,97.3594 Q1258.7188,97.5156 1259.2656,97.875 Z " fill="#000000"/>
            <text fill="#000000" font-family="sans-serif" font-size="14" lengthAdjust="spacing" textLength="35" x="1270.5" y="107.7285">Menu</text>
            <line style="stroke:#181818;stroke-width:0.5;" x1="1242.5" x2="1307.5" y1="118" y2="118"/>
            <line style="stroke:#181818;stroke-width:0.5;" x1="1242.5" x2="1307.5" y1="126" y2="126"/>
        </g>
        <!--SRC=[VSrR2i9030NGVrVX2hA7KXGAbWgr2uWpeKH3CioZTlaY5F5H-XD8xY7N2QQqhqrpD45l4MfXqhnSXEBE_P4kUegRuXpD5xVzfKUXJN31wufeaHMg49RrXXC26pJTONOKCfj-93Ea1-i8_MiEcOKpKre1GzEYulXk-SeqbH0iPl8ditkb_aWaltKJfupGafOd]-->
    </g>
</svg>
